<svg width="31" height="30" viewBox="0 0 31 30" fill="none"
  xmlns="http://www.w3.org/2000/svg">
  <path d="M1.96889 8.1646C1.75041 6.19832 3.00219 4.36769 4.91377 3.85794L14.4693 1.30979C15.1447 1.1297 15.8553 1.1297 16.5307 1.30979L26.0862 3.85794C27.9978 4.36769 29.2496 6.19832 29.0311 8.16461L27.7757 19.463C27.6396 20.6881 26.9463 21.7819 25.8966 22.4279L16.0241 28.5033C15.7027 28.7011 15.2973 28.7011 14.9759 28.5033L5.10341 22.4279C4.05367 21.7819 3.36038 20.6881 3.22427 19.463L1.96889 8.1646Z" fill="white" stroke="#2D2B2E" stroke-width="2"/>
  <path fill-rule="evenodd" clip-rule="evenodd" d="M15.3702 23.0258C14.3298 23.0367 13.2858 22.6452 12.492 21.8513L6.82023 16.1796C5.25403 14.6134 5.25403 12.0741 6.82023 10.5079C8.38644 8.94169 10.9258 8.94169 12.492 10.5079L15.3281 13.3441L18.1643 10.5079C19.7305 8.94168 22.2698 8.94168 23.836 10.5079C25.4022 12.0741 25.4022 14.6134 23.836 16.1796L18.1643 21.8513C17.3918 22.6238 16.3826 23.0153 15.3702 23.0258Z" fill="#C80009"/>
  <line x1="15.5" y1="10" x2="15.5" y2="6" stroke="#1F9C81" stroke-width="2" stroke-linecap="round"/>
  <line x1="17.5" y1="8" x2="13.5" y2="8" stroke="#1F9C81" stroke-width="2" stroke-linecap="round"/>
  <path d="M12.5 14L10.5 12" stroke="white" stroke-width="2" stroke-linecap="round" stroke-linejoin="round"/>
</svg>
