<svg width="32" height="30" viewBox="0 0 32 30" fill="none"
  xmlns="http://www.w3.org/2000/svg">
  <rect x="7.5" y="1" width="22" height="16" rx="4" fill="white" stroke="#2D2B2E" stroke-width="2"/>
  <path d="M15.5 5L5.5 5" stroke="#1F9C81" stroke-width="2" stroke-linecap="round" stroke-linejoin="round"/>
  <path d="M13.5 9L1.5 9" stroke="#1F9C81" stroke-width="2" stroke-linecap="round" stroke-linejoin="round"/>
  <rect x="1.5" y="13" width="22" height="16" rx="4" fill="white" stroke="#2D2B2E" stroke-width="2"/>
  <path fill-rule="evenodd" clip-rule="evenodd" d="M8.25 21.3345C7.50275 21.7667 7 22.5746 7 23.5C7 24.4254 7.50275 25.2333 8.25 25.6655C7.88228 25.8783 7.45536 26 7 26C5.61929 26 4.5 24.8807 4.5 23.5C4.5 22.1193 5.61929 21 7 21C7.45536 21 7.88228 21.1217 8.25 21.3345Z" fill="#2D2B2E"/>
  <path fill-rule="evenodd" clip-rule="evenodd" d="M8.25 21.3345C8.99725 21.7667 9.5 22.5746 9.5 23.5C9.5 24.4254 8.99725 25.2333 8.25 25.6655C8.61772 25.8783 9.04464 26 9.5 26C10.8807 26 12 24.8807 12 23.5C12 22.1193 10.8807 21 9.5 21C9.04464 21 8.61772 21.1217 8.25 21.3345Z" fill="#2D2B2E"/>
  <path d="M5.5 17L23.5 17" stroke="#2D2B2E" stroke-width="2" stroke-linecap="round" stroke-linejoin="round"/>
  <path d="M15.5 25L26.5 25" stroke="#C80009" stroke-width="2" stroke-linecap="round" stroke-linejoin="round"/>
  <path d="M17.5 21L30.5 21" stroke="#C80009" stroke-width="2" stroke-linecap="round" stroke-linejoin="round"/>
  <path fill-rule="evenodd" clip-rule="evenodd" d="M20 4H21.9989C22.3517 4 22.6233 4.17591 22.7915 4.41582C22.9507 4.64293 23.0164 4.92078 23.0164 5.17512C23.0164 5.42945 22.9507 5.7073 22.7915 5.93441C22.73 6.02207 22.6548 6.10118 22.5668 6.16629L22.9836 7.15718V6.15668H24.9826C25.3354 6.15668 25.6069 6.33259 25.7751 6.57251C25.9344 6.79961 26 7.07747 26 7.3318C26 7.58613 25.9344 7.86398 25.7751 8.09109C25.6069 8.33101 25.3354 8.50691 24.9826 8.50691H23.8408V9.57143C23.8408 9.80812 23.6489 10 23.4122 10C23.1755 10 22.9836 9.80812 22.9836 9.57143V7.65255C22.9386 7.72025 22.8738 7.77589 22.7932 7.80978C22.5751 7.90157 22.3238 7.79911 22.232 7.58094L21.7143 6.35023H20.8571V7.41475C20.8571 7.65144 20.6653 7.84332 20.4286 7.84332C20.1919 7.84332 20 7.65144 20 7.41475V4ZM20.8571 5.49309H21.9989C22.0387 5.49309 22.0616 5.48236 22.0897 5.44232C22.1267 5.38947 22.1592 5.29406 22.1592 5.17512C22.1592 5.05617 22.1267 4.96076 22.0897 4.90791C22.0616 4.86787 22.0387 4.85714 21.9989 4.85714H20.8571V5.49309ZM23.8408 7.64977H24.9826C25.0223 7.64977 25.0452 7.63904 25.0733 7.599C25.1104 7.54616 25.1429 7.45074 25.1429 7.3318C25.1429 7.21286 25.1104 7.11744 25.0733 7.06459C25.0452 7.02455 25.0223 7.01382 24.9826 7.01382H23.8408V7.64977Z" fill="#1F9C81"/>
</svg>
