<svg width="32" height="30" viewBox="0 0 32 30" fill="none"
  xmlns="http://www.w3.org/2000/svg">
  <circle cx="9.5" cy="7" r="6" stroke="#2D2B2E" stroke-width="2"/>
  <circle cx="23.5" cy="13" r="5" fill="white" stroke="#2D2B2E" stroke-width="2"/>
  <path d="M23.5 6C19.634 6 16.5 9.58172 16.5 14H30.5C30.5 9.58172 27.366 6 23.5 6Z" fill="#C80009"/>
  <path d="M0.5 20C0.5 17.2386 2.73858 15 5.5 15H13.5C16.2614 15 18.5 17.2386 18.5 20V30H0.5V20Z" fill="#1F9C81"/>
  <path d="M16.5 13L30.5 13" stroke="#C80009" stroke-width="2" stroke-linecap="round" stroke-linejoin="round"/>
  <path d="M3.5 21H9.5" stroke="white" stroke-width="2" stroke-linecap="round" stroke-linejoin="round"/>
  <path d="M6.5 18V24" stroke="white" stroke-width="2" stroke-linecap="round" stroke-linejoin="round"/>
  <path d="M23.5 8V10" stroke="white" stroke-width="2" stroke-linecap="round" stroke-linejoin="round"/>
  <mask id="path-9-inside-1_1436_4537" fill="white">
    <path fill-rule="evenodd" clip-rule="evenodd" d="M16.5 26.8571V26H16.5549C16.6328 25.394 16.7932 24.7997 17.0328 24.233C17.3846 23.4011 17.9002 22.6452 18.5503 22.0084C19.2003 21.3717 19.9719 20.8666 20.8212 20.522C21.6705 20.1774 22.5807 20 23.5 20C24.4193 20 25.3295 20.1774 26.1788 20.522C27.0281 20.8666 27.7997 21.3717 28.4497 22.0084C29.0998 22.6452 29.6154 23.4011 29.9672 24.233C30.2068 24.7997 30.3672 25.394 30.4451 26H30.5V26.8571V30H16.5V26.8571Z"/>
  </mask>
  <path d="M16.5 26V24H14.5V26H16.5ZM16.5549 26V28H18.3141L18.5386 26.2551L16.5549 26ZM17.0328 24.233L15.1908 23.4541L17.0328 24.233ZM18.5503 22.0084L17.1507 20.5797L17.1507 20.5797L18.5503 22.0084ZM20.8212 20.522L21.5732 22.3752V22.3752L20.8212 20.522ZM26.1788 20.522L25.4268 22.3752V22.3752L26.1788 20.522ZM28.4497 22.0084L29.8493 20.5797V20.5797L28.4497 22.0084ZM29.9672 24.233L31.8092 23.4541V23.4541L29.9672 24.233ZM30.4451 26L28.4614 26.2551L28.6859 28H30.4451V26ZM30.5 26H32.5V24H30.5V26ZM30.5 30V32H32.5V30H30.5ZM16.5 30H14.5V32H16.5V30ZM18.5 26.8571V26H14.5V26.8571H18.5ZM16.5 28H16.5549V24H16.5V28ZM15.1908 23.4541C14.8804 24.188 14.6724 24.9586 14.5712 25.7449L18.5386 26.2551C18.5933 25.8295 18.706 25.4113 18.8749 25.0119L15.1908 23.4541ZM17.1507 20.5797C16.3131 21.4002 15.6464 22.3766 15.1908 23.4541L18.8749 25.0119C19.1229 24.4256 19.4874 23.8901 19.9498 23.4371L17.1507 20.5797ZM20.0692 18.6687C18.9803 19.1106 17.9882 19.7592 17.1507 20.5797L19.9498 23.4371C20.4123 22.9841 20.9636 22.6226 21.5732 22.3752L20.0692 18.6687ZM23.5 18C22.3238 18 21.1581 18.2269 20.0692 18.6687L21.5732 22.3752C22.1829 22.1278 22.8377 22 23.5 22V18ZM26.9308 18.6687C25.8419 18.2269 24.6762 18 23.5 18V22C24.1623 22 24.8171 22.1278 25.4268 22.3752L26.9308 18.6687ZM29.8493 20.5797C29.0118 19.7592 28.0197 19.1106 26.9308 18.6687L25.4268 22.3752C26.0364 22.6226 26.5877 22.9841 27.0502 23.4371L29.8493 20.5797ZM31.8092 23.4541C31.3536 22.3766 30.6869 21.4002 29.8493 20.5797L27.0502 23.4371C27.5126 23.8901 27.8771 24.4256 28.1251 25.0119L31.8092 23.4541ZM32.4288 25.7449C32.3276 24.9586 32.1196 24.188 31.8092 23.4541L28.1251 25.0119C28.294 25.4113 28.4067 25.8295 28.4614 26.2551L32.4288 25.7449ZM30.4451 28H30.5V24H30.4451V28ZM28.5 26V26.8571H32.5V26H28.5ZM28.5 26.8571V30H32.5V26.8571H28.5ZM30.5 28H16.5V32H30.5V28ZM18.5 30V26.8571H14.5V30H18.5Z" fill="#2D2B2E" mask="url(#path-9-inside-1_1436_4537)"/>
</svg>
