<svg width="31" height="30" viewBox="0 0 31 30" fill="none"
  xmlns="http://www.w3.org/2000/svg">
  <path d="M8.29377 4.1226L25.3402 1.36271C25.9483 1.26425 26.5 1.73379 26.5 2.34985V5C26.5 5.55228 26.0523 6 25.5 6H8.44477C7.92299 6 7.5 5.57701 7.5 5.05523C7.5 4.59173 7.83623 4.19668 8.29377 4.1226Z" fill="#1F9C81" stroke="#1F9C81" stroke-width="2" stroke-linejoin="round"/>
  <rect x="7.5" y="5" width="22" height="14" rx="1" fill="white" stroke="#2D2B2E" stroke-width="2" stroke-linejoin="round"/>
  <path fill-rule="evenodd" clip-rule="evenodd" d="M25.5 9H28.5V13H25.5C24.3954 13 23.5 12.1046 23.5 11C23.5 9.89543 24.3954 9 25.5 9Z" fill="#1F9C81"/>
  <circle cx="25.5" cy="11" r="1" fill="white"/>
  <rect x="0.5" y="14" width="24" height="16" rx="2" fill="#C80009"/>
  <path d="M1.5 19H23.5M13.5 25H19" stroke="#F9F9F9" stroke-width="2" stroke-linecap="round" stroke-linejoin="round"/>
</svg>
