<svg width="31" height="30" viewBox="0 0 31 30" fill="none"
  xmlns="http://www.w3.org/2000/svg">
  <rect x="1.5" y="1" width="24" height="28" rx="4" fill="white" stroke="#2D2B2E" stroke-width="2"/>
  <path d="M6.5 20H16.5M6.5 24H15.5M11.5 16H20.5" stroke="#2D2B2E" stroke-width="2" stroke-linecap="round" stroke-linejoin="round"/>
  <path d="M13.5 0H5.5V11L9.5 7.5L13.5 11V0Z" fill="#C80009"/>
  <circle cx="24.5" cy="24" r="6" fill="#1F9C81"/>
  <path fill-rule="evenodd" clip-rule="evenodd" d="M21.5 21H23.4781C23.8154 21 24.0745 21.1675 24.236 21.3979C24.3896 21.617 24.4542 21.8873 24.4542 22.1371C24.4542 22.3869 24.3896 22.6572 24.236 22.8763C24.1677 22.9736 24.0821 23.0597 23.9806 23.1267L24.4649 24.278C24.5452 24.4689 24.4556 24.6887 24.2647 24.769C24.0738 24.8494 23.8539 24.7597 23.7736 24.5688L23.229 23.2742H22.2504L22.25 24.4234C22.25 24.6305 22.0821 24.7984 21.875 24.7984C21.6679 24.7984 21.5 24.6305 21.5 24.4234V21ZM22.2504 22.5242H23.4781C23.5415 22.5242 23.583 22.5012 23.6219 22.4458C23.6686 22.3791 23.7042 22.2684 23.7042 22.1371C23.7042 22.0058 23.6686 21.8951 23.6219 21.8284C23.583 21.773 23.5415 21.75 23.4781 21.75H22.2504V22.5242ZM24.5458 23.2016H26.5239C26.8612 23.2016 27.1203 23.3691 27.2818 23.5995C27.4354 23.8186 27.5 24.089 27.5 24.3387C27.5 24.5885 27.4354 24.8588 27.2818 25.0779C27.1203 25.3083 26.8612 25.4758 26.5239 25.4758H25.2958V26.625C25.2958 26.8321 25.1279 27 24.9208 27C24.7137 27 24.5458 26.8321 24.5458 26.625V23.2016ZM25.2958 24.7258H26.5239C26.5873 24.7258 26.6288 24.7028 26.6677 24.6474C26.7144 24.5807 26.75 24.47 26.75 24.3387C26.75 24.2074 26.7144 24.0967 26.6677 24.0301C26.6288 23.9746 26.5873 23.9516 26.5239 23.9516H25.2958V24.7258Z" fill="white"/>
  <path d="M8.5 5H10.5" stroke="white" stroke-width="2" stroke-linecap="round" stroke-linejoin="round"/>
</svg>
