<svg width="31" height="30" viewBox="0 0 31 30" fill="none"
  xmlns="http://www.w3.org/2000/svg">
  <path d="M10.5 5V3.5C10.5 2.11929 9.38071 1 8 1V1C6.61929 1 5.5 2.11929 5.5 3.5V19" stroke="#2D2B2E" stroke-width="2" stroke-linecap="round"/>
  <circle cx="22.5" cy="8" r="7" fill="white" stroke="#2D2B2E" stroke-width="2"/>
  <circle cx="10.5" cy="8" r="1" fill="#1F9C81"/>
  <circle cx="10.5" cy="11" r="1" fill="#1F9C81"/>
  <rect x="14.5" y="14" width="4" height="8" rx="2" fill="#C80009"/>
  <rect x="8.5" y="14" width="4" height="8" rx="2" fill="#C80009"/>
  <path d="M1.5 20C1.5 19.4477 1.94772 19 2.5 19H28.5C29.0523 19 29.5 19.4477 29.5 20C29.5 24.9706 25.4706 29 20.5 29H10.5C5.52944 29 1.5 24.9706 1.5 20Z" fill="white" stroke="#2D2B2E" stroke-width="2"/>
  <path d="M14.5 23L27.5 23" stroke="#1F9C81" stroke-width="2" stroke-linecap="round" stroke-linejoin="round"/>
  <path d="M8.5 23H10.5" stroke="#1F9C81" stroke-width="2" stroke-linecap="round" stroke-linejoin="round"/>
</svg>
