<svg width="31" height="30" viewBox="0 0 31 30" fill="none"
  xmlns="http://www.w3.org/2000/svg">
  <path d="M14.5 17.6159C14.5 16.7922 15.005 16.0527 15.7723 15.753L27.7723 11.0655C29.0838 10.5532 30.5 11.5204 30.5 12.9284V27.0716C30.5 28.4796 29.0838 29.4468 27.7723 28.9345L15.7723 24.247C15.005 23.9473 14.5 23.2078 14.5 22.3841V17.6159Z" fill="#C80009"/>
  <rect x="1.5" y="11" width="20" height="18" rx="4" fill="white" stroke="#2D2B2E" stroke-width="2"/>
  <circle cx="6.5" cy="5" r="5" fill="#1F9C81"/>
  <circle cx="16.5" cy="5" r="5" fill="#1F9C81"/>
  <path fill-rule="evenodd" clip-rule="evenodd" d="M9.5 14C8.39543 14 7.5 14.8954 7.5 16V22C6.39543 22 5.5 22.8954 5.5 24C5.5 25.1046 6.39543 26 7.5 26C8.60457 26 9.5 25.1046 9.5 24V18H13.5V20C12.3954 20 11.5 20.8954 11.5 22C11.5 23.1046 12.3954 24 13.5 24C14.6046 24 15.5 23.1046 15.5 22V16C15.5 14.8954 14.6046 14 13.5 14H9.5Z" fill="#2D2B2E"/>
</svg>
